Coordinates
version=1
nRows=11
nColumns=32
inDegrees=yes

Units are S.I. units (second, meters, Newtons, ...)
If the header above contains a line with 'inDegrees', this indicates whether rotational values are in degrees (yes) or radians (no).

endheader
time	pelvis_tilt	pelvis_list	pelvis_rotation	pelvis_tx	pelvis_ty	pelvis_tz	hip_flexion_r	hip_adduction_r	hip_rotation_r	knee_angle_r	knee_adduction_r	med_cond_adduction_r	lat_cond_adduction_r	patella_r_constrained_knee_angle	ankle_angle_r	subtalar_angle_r	mtp_angle_r	hip_flexion_l	hip_adduction_l	hip_rotation_l	knee_angle_l	knee_adduction_l	med_cond_adduction_l	lat_cond_adduction_l	patella_l_constrained_knee_angle	ankle_angle_l	subtalar_angle_l	mtp_angle_l	lumbar_extension	lumbar_bending	lumbar_rotation
      0.98500000	      3.30241598	      7.51284390	     -4.98533808	      0.63463080	      0.94096836	      0.21892577	     20.88150644	    -17.27880659	     -6.30412333	    -68.09195423	      3.40649660	     -0.00000000	     -0.00000000	     -1.18842880	     -5.32811054	     -5.96140753	      0.00000000	     -0.67012284	      8.16935981	    -19.35323994	     -6.89677799	      0.02499271	      0.00000000	      0.00000000	     -0.12037148	      0.47071021	      4.52918277	      0.00000000	     -1.90686950	     -7.60016422	      4.98259042
      0.99000000	      3.28916873	      7.29184025	     -4.84274029	      0.64079461	      0.94134517	      0.21855025	     21.43023203	    -16.81582616	     -5.89870611	    -67.26931418	      3.96182247	     -0.00000000	     -0.00000000	     -1.17407102	     -4.78245627	     -6.03001480	      0.00000000	     -1.33727396	      7.96737082	    -19.35595623	     -6.49071032	      0.16802006	      0.00000000	      0.00000000	     -0.11328427	      0.62364240	      4.81031623	     -0.00000000	     -1.97908668	     -7.31547866	      4.87509082
      0.99500000	      3.12837062	      7.33301141	     -4.60757460	      0.64696337	      0.94119630	      0.21788643	     22.20863626	    -16.75275261	     -5.37036216	    -66.52437003	      4.67254555	     -0.00000000	     -0.00000000	     -1.16106929	     -4.18614703	     -5.97580577	      0.00000000	     -1.79336016	      8.12400932	    -19.18673913	     -6.08396905	      0.16011166	     -0.00000000	     -0.00000000	     -0.10618529	      0.76746882	      4.98079635	     -0.00000000	     -1.83787524	     -7.37362337	      4.63263837
      1.00000000	      3.11927243	      7.13535858	     -4.40442288	      0.65311200	      0.94143480	      0.21739383	     22.67729181	    -16.35983359	     -5.04989957	    -65.54272270	      5.19730691	      0.00000000	      0.00000000	     -1.14393631	     -3.70290474	     -6.04806947	      0.00000000	     -2.44502248	      7.95696391	    -19.05285755	     -5.70553487	      0.28104461	      0.00000000	      0.00000000	     -0.09958037	      0.93068178	      5.15061313	      0.00000000	     -1.93974068	     -7.05486367	      4.56114268
      1.00500000	      3.08147709	      7.00114690	     -4.12821564	      0.65925798	      0.94152290	      0.21669141	     23.14770074	    -16.10315589	     -4.75767830	    -64.50881557	      5.75667561	      0.00000000	      0.00000000	     -1.12589123	     -3.25125817	     -6.11537559	      0.00000000	     -3.04185819	      7.88877135	    -18.79898297	     -5.34175892	      0.34059371	     -0.00000000	     -0.00000000	     -0.09323128	      1.08108949	      5.24341596	      0.00000000	     -2.00128130	     -6.85217443	      4.32841222
      1.01000000	      3.21416089	      6.53528700	     -3.70272562	      0.66540196	      0.94215070	      0.21566899	     23.17395779	    -15.51548238	     -4.91203972	    -63.15594501	      6.11048797	      0.00000000	      0.00000000	     -1.10227918	     -2.99571563	     -6.34172484	      0.00000000	     -3.89426589	      7.45607349	    -18.23667621	     -4.91722574	      0.46637244	      0.00000000	      0.00000000	     -0.08582178	      1.23121707	      5.08005048	      0.00000000	     -2.34124163	     -6.28695091	      3.79297658
      1.01500000	      3.05825255	      6.68132713	     -3.45290321	      0.67155076	      0.94167540	      0.21504891	     23.85287098	    -15.60040486	     -4.45833597	    -62.14613284	      6.70722534	     -0.00000000	     -0.00000000	     -1.08465464	     -2.46941287	     -6.30891338	     -0.00000000	     -4.30498841	      7.71374348	    -17.97382991	     -4.58740621	      0.43187791	      0.00000000	      0.00000000	     -0.08006534	      1.34757294	      5.14262813	      0.00000000	     -2.22931577	     -6.24961853	      3.94455535
      1.02000000	      3.10336682	      6.39399993	     -3.10830009	      0.67772475	      0.94184287	      0.21421163	     24.03959139	    -15.19889713	     -4.46308178	    -60.78407768	      7.04555861	      0.00000000	      0.00000000	     -1.06088229	     -2.17400656	     -6.46441373	     -0.00000000	     -4.96924650	      7.43523220	    -17.65338299	     -4.30425029	      0.52909364	     -0.00000000	      0.00000000	     -0.07512334	      1.55780190	      5.20498520	      0.00000000	     -2.41418201	     -5.87483294	      3.56441739
      1.02500000	      3.08237683	      6.32540095	     -2.82265257	      0.68384917	      0.94164301	      0.21352903	     24.39306942	    -15.04128280	     -4.28118976	    -59.48602201	      7.43377246	     -0.00000000	     -0.00000000	     -1.03822694	     -1.87826522	     -6.55450379	     -0.00000000	     -5.48162211	      7.38403878	    -17.45813817	     -4.14188868	      0.58809170	     -0.00000000	     -0.00000000	     -0.07228959	      1.81962654	      5.37362945	     -0.00000000	     -2.49165811	     -5.73838272	      3.35424708
      1.03000000	      3.28312921	      5.84734601	     -2.02137867	      0.69004348	      0.94218561	      0.21143549	     24.06529083	    -14.73019595	     -5.00938600	    -57.78485008	      7.62235866	      0.00000000	      0.00000000	     -1.00853589	     -1.77668332	     -6.71938987	      0.00000000	     -6.33475222	      7.00064480	    -16.47340939	     -3.80146174	      0.51444859	     -0.00000000	     -0.00000000	     -0.06634802	      1.98099076	      5.10018059	     -0.00000000	     -2.88280000	     -5.48589177	      1.71427320
      1.03500000	      3.13934542	      5.95085670	     -2.02568814	      0.69619458	      0.94145201	      0.21154329	     24.68999535	    -14.59600734	     -4.46810933	    -56.50646823	      7.95296876	      0.00000000	      0.00000000	     -0.98622392	     -1.51320260	     -6.84924862	      0.00000000	     -6.68346929	      7.07057211	    -16.61609009	     -3.69110190	      0.63672466	     -0.00000000	     -0.00000000	     -0.06442188	      2.31174377	      5.39494496	     -0.00000000	     -2.82328713	     -5.08559896	      2.66818432
